name C:\Users\u0101727\Documents\MyRepositories\upper-imu-dc\Results\main_tracking\Case_31\FLX01_linearAccelerations_groundFrame.mot
datacolumns 4
datarows 129
range 0.51000000 1.79000000
endheader 
time	radius_imu_x	radius_imu_y	radius_imu_z	
          0.51000000	         -0.59197070	         10.61614491	          2.87266462	
          0.52000000	         -0.14324135	         10.18580797	          1.53790154	
          0.53000000	          0.00042997	         10.16805704	          0.95964406	
          0.54000000	          0.19808918	         10.07119334	          0.30121589	
          0.55000000	          0.26207418	          9.99246269	         -0.24442464	
          0.56000000	          0.22003137	          9.92621799	         -0.64241884	
          0.57000000	          0.11206509	          9.87204136	         -0.88836566	
          0.58000000	         -0.03726539	          9.83532766	         -0.97186867	
          0.59000000	         -0.21729281	          9.82337084	         -0.87765710	
          0.60000000	         -0.42462090	          9.84284797	         -0.59880370	
          0.61000000	         -0.65820896	          9.89768601	         -0.14829251	
          0.62000000	         -0.91402071	          9.98812599	          0.43601576	
          0.63000000	         -1.18269421	         10.11133324	          1.09549281	
          0.64000000	         -1.45404976	         10.26163927	          1.76385700	
          0.65000000	         -1.72691061	         10.43070636	          2.38639840	
          0.66000000	         -2.01314995	         10.60796152	          2.93219671	
          0.67000000	         -2.33270663	         10.78159362	          3.39314735	
          0.68000000	         -2.70268587	         10.93887617	          3.77148813	
          0.69000000	         -3.12812265	         11.06731595	          4.06719146	
          0.70000000	         -3.59807697	         11.15734228	          4.27190442	
          0.71000000	         -4.08824252	         11.20514863	          4.37094300	
          0.72000000	         -4.56825988	         11.21425752	          4.35093274	
          0.73000000	         -5.00953786	         11.19537576	          4.20782263	
          0.74000000	         -5.39053283	         11.16391753	          3.95019332	
          0.75000000	         -5.69929041	         11.13495744	          3.59772601	
          0.76000000	         -5.93384980	         11.11801495	          3.17785566	
          0.77000000	         -6.10088212	         11.11498940	          2.72231335	
          0.78000000	         -6.21237281	         11.12070439	          2.26325927	
          0.79000000	         -6.28102895	         11.12660128	          1.82855000	
          0.80000000	         -6.31685652	         11.12241627	          1.43907036	
          0.81000000	         -6.32541182	         11.10159012	          1.10590969	
          0.82000000	         -6.30917905	         11.06218118	          0.83136068	
          0.83000000	         -6.26902391	         11.00979950	          0.60794329	
          0.84000000	         -6.20681642	         10.95529437	          0.42068148	
          0.85000000	         -6.12745909	         10.91200548	          0.24929274	
          0.86000000	         -6.04120414	         10.89180403	          0.07286115	
          0.87000000	         -5.96615488	         10.90011536	         -0.12627243	
          0.88000000	         -5.93109821	         10.92026675	         -0.33232293	
          0.89000000	         -5.95549362	         10.98096687	         -0.46292333	
          0.90000000	         -6.03893942	         11.05029289	         -0.59338243	
          0.91000000	         -6.16111002	         11.13907443	         -0.72744766	
          0.92000000	         -6.31160140	         11.23868184	         -0.84902420	
          0.93000000	         -6.48543575	         11.34548066	         -0.94364542	
          0.94000000	         -6.67700804	         11.44758247	         -0.99702880	
          0.95000000	         -6.88823563	         11.54309832	         -1.01014314	
          0.96000000	         -7.11551467	         11.60634510	         -0.98025044	
          0.97000000	         -7.35466538	         11.63560744	         -0.93618678	
          0.98000000	         -7.59109700	         11.62027427	         -0.90379744	
          0.99000000	         -7.80852637	         11.57540122	         -0.92315280	
          1.00000000	         -7.99223192	         11.51572666	         -1.01433400	
          1.01000000	         -8.13979468	         11.46790378	         -1.18160143	
          1.02000000	         -8.26356318	         11.44008451	         -1.39515988	
          1.03000000	         -8.37972637	         11.43600479	         -1.62160707	
          1.04000000	         -8.50290812	         11.44743832	         -1.82759278	
          1.05000000	         -8.64472966	         11.46152699	         -1.98959150	
          1.06000000	         -8.81720314	         11.46594086	         -2.09427686	
          1.07000000	         -9.03225514	         11.44757320	         -2.13400970	
          1.08000000	         -9.29720472	         11.40084922	         -2.11775907	
          1.09000000	         -9.61240804	         11.32615829	         -2.06725508	
          1.10000000	         -9.96932050	         11.22914620	         -2.01414359	
          1.11000000	        -10.35014143	         11.11937678	         -1.99406086	
          1.12000000	        -10.73251483	         11.00556147	         -2.03616597	
          1.13000000	        -11.09083593	         10.89332255	         -2.15997765	
          1.14000000	        -11.39909372	         10.78647840	         -2.37641328	
          1.15000000	        -11.63326616	         10.68492809	         -2.68678749	
          1.16000000	        -11.77081364	         10.58731448	         -3.08995299	
          1.17000000	        -11.78868188	         10.49169382	         -3.58632159	
          1.18000000	        -11.66359887	         10.39736933	         -4.18328066	
          1.19000000	        -11.37063307	         10.30623451	         -4.89812550	
          1.20000000	        -10.88867503	         10.22003996	         -5.75368518	
          1.21000000	        -10.18620805	         10.14498878	         -6.78404944	
          1.22000000	         -9.24577839	         10.08559939	         -7.99702848	
          1.23000000	         -7.38922869	          9.45762562	         -9.22703846	
          1.24000000	         -7.70485765	          8.83513699	         -8.71546502	
          1.25000000	         -5.08534447	          9.33504838	        -11.38432395	
          1.26000000	         -2.90980626	          8.83113921	        -13.30088907	
          1.27000000	         -1.05940716	          8.34138186	        -14.28833471	
          1.28000000	          0.92950660	          7.85371530	        -15.06639204	
          1.29000000	          3.91216582	          6.87616272	        -15.06810818	
          1.30000000	          4.87773281	          5.43018802	        -14.87092622	
          1.31000000	          3.32100929	          8.55514976	        -15.72483285	
          1.32000000	          2.13776909	         10.96158123	        -16.78410615	
          1.33000000	          3.46922510	         11.20739766	        -16.12445395	
          1.34000000	          4.54052278	         10.26556532	        -15.59035767	
          1.35000000	          7.32023263	         10.05968980	        -14.84571518	
          1.36000000	          8.32037925	          8.56354961	        -14.46921383	
          1.37000000	          8.34989400	          8.87823357	        -13.35890346	
          1.38000000	          6.47566465	          9.09288590	        -12.82770242	
          1.39000000	          7.46802655	          8.55134831	         -8.78291972	
          1.40000000	          3.98871336	          9.04568716	         -7.63515507	
          1.41000000	          2.61536657	          8.75971718	         -3.84172897	
          1.42000000	         -0.82375552	          9.08616582	         -2.46302683	
          1.43000000	         -3.35935945	          9.18711096	         -0.09821158	
          1.44000000	         -4.68517630	          9.09223911	          2.03127003	
          1.45000000	         -5.18779682	          9.03724954	          3.66222723	
          1.46000000	         -5.01140579	          9.06854490	          4.73023241	
          1.47000000	         -4.21615137	          9.15398075	          5.30572053	
          1.48000000	         -2.71116927	          9.20175561	          5.83967034	
          1.49000000	         -1.28696001	          9.45135588	          6.13844914	
          1.50000000	         -1.35895576	          9.52226748	          5.48679085	
          1.51000000	         -2.30128455	          9.37871820	          4.21342162	
          1.52000000	         -1.88987709	          9.62215554	          4.53131945	
          1.53000000	         -2.50249640	          9.64636173	          4.43785368	
          1.54000000	         -3.02041580	          9.55724448	          3.87316409	
          1.55000000	         -3.11831786	          9.39707980	          3.24541322	
          1.56000000	         -2.87885892	          9.23794625	          2.28365586	
          1.57000000	         -2.32181804	          9.12515392	          0.93669430	
          1.58000000	         -1.44098399	          9.06979820	         -0.85366610	
          1.59000000	         -0.17251697	          9.10897771	         -2.88250249	
          1.60000000	          1.17574199	          8.88956753	         -5.86614202	
          1.61000000	          0.98675966	          9.04349179	         -9.42353047	
          1.62000000	          2.94886654	          9.15274746	        -11.56690976	
          1.63000000	          5.20471909	          9.34497738	        -13.95709031	
          1.64000000	          7.82602501	          9.72020071	        -15.81205583	
          1.65000000	         11.12200944	         10.22332400	        -16.59393864	
          1.66000000	         11.36493332	         10.34429425	        -18.48545381	
          1.67000000	          8.05468244	         10.45825857	        -18.13819254	
          1.68000000	          5.24233249	         10.18737222	        -18.48892769	
          1.69000000	          3.32565422	          9.87096327	        -17.52235468	
          1.70000000	          1.74337822	          9.56390989	        -16.03113119	
          1.71000000	          0.33032524	          9.29733441	        -14.28740409	
          1.72000000	         -0.94135826	          9.08875175	        -12.43778706	
          1.73000000	         -2.07018784	          8.94686267	        -10.57486562	
          1.74000000	         -3.06143776	          8.86922717	         -8.76289388	
          1.75000000	         -3.92347126	          8.84675324	         -7.04372998	
          1.76000000	         -4.66194834	          8.86794892	         -5.44183691	
          1.77000000	         -5.28034799	          8.92136219	         -3.97106134	
          1.78000000	         -5.78316473	          8.99671144	         -2.63911973	
          1.79000000	         -6.17828093	          9.08542723	         -1.44758649	
